Coordinates
version=1
nRows=14
nColumns=33
inDegrees=yes

Units are S.I. units (second, meters, Newtons, ...)
Angles are in degrees.

endheader
time	ground_thorax_rot_x	ground_thorax_rot_y	ground_thorax_rot_z	ground_thorax_tx	ground_thorax_ty	ground_thorax_tz	clav_prot_r	clav_elev_r	scapula_abduction_r	scapula_elevation_r	scapula_upward_rot_r	scapula_winging_r	shoulder_elv_r	plane_of_elev_r	axial_rot_r	elbow_flexion_r	pro_sup_r	wrist_flex_r	wrist_dev_r	clav_prot_l	clav_elev_l	scapula_abduction_l	scapula_elevation_l	scapula_upward_rot_l	scapula_winging_l	shoulder_elv_l	plane_of_elev_l	axial_rot_l	elbow_flexion_l	pro_sup_l	wrist_flex_l	wrist_dev_l
      3.14000000	     30.02346585	     27.03956803	     40.82151335	    -55.16315575	    847.09617915	    -49.39818358	     12.96477118	     34.08766249	     29.24705912	     45.00000000	    -45.00000000	    991.80027033	   2772.06394891	    156.29326382	      4.78354279	   1798.34418697	    524.91378958	     17.45676469	     14.28964409	     -6.86687097	    -45.00000000	    -39.51731355	     45.00000000	    -45.00000000	   5503.41995523	  -5681.57148472	     27.86342452	     40.09276703	   1070.19852607	     43.42869960	     14.01875475	    -22.08677837
      3.15000000	     30.02088428	     26.95659114	     40.93092303	    -53.01087327	    846.78002576	    -49.27232114	     12.97772041	     34.17366419	     29.48965603	     45.00000000	    -45.00000000	    991.80757059	   2771.94144943	    156.17789790	      4.68201533	   1798.38050119	    524.68972786	     17.32889932	     14.39135643	     -6.85346769	    -45.00000000	    -39.42640211	     45.00000000	    -45.00000000	   5503.35041987	  -5681.62077516	     28.10674538	     40.75940835	   1070.17069281	     43.49700668	     14.11269198	    -21.96631146
      3.16000000	     29.94117110	     26.96758288	     41.10566675	    -50.83109709	    846.42634798	    -49.11706835	     12.97493689	     34.17474415	     29.59922996	     45.00000000	    -45.00000000	    991.90656129	   2771.92270531	    156.11917441	      4.58068795	   1798.35982483	    524.47124389	     17.19881822	     14.50422973	     -6.87697643	    -45.00000000	    -39.34886061	     45.00000000	    -45.00000000	   5503.20085829	  -5681.61871198	     28.24152727	     41.28633823	   1070.18268813	     43.58549013	     14.21304888	    -21.82060656
      3.17000000	     29.74150907	     27.10281199	     41.44058338	    -48.62295750	    846.03245633	    -48.93805402	     12.98344821	     34.13899148	     29.65166445	     45.00000000	    -45.00000000	    992.04838828	   2771.94340331	    156.26069199	      4.46751614	   1798.27707448	    524.28229887	     17.07699980	     14.63890149	     -6.95727262	    -45.00000000	    -39.42149944	     45.00000000	    -45.00000000	   5502.98204748	  -5681.60412456	     28.24086758	     41.69225948	   1070.24026204	     43.69298427	     14.28223036	    -21.63174902
      3.18000000	     29.30879770	     27.37577434	     41.99974472	    -46.36947455	    845.58831504	    -48.75407153	     12.94650010	     34.17057740	     29.25613639	     45.00000000	    -45.00000000	    992.29265588	   2772.10919640	    156.22705878	      4.30515534	   1798.17827296	    524.09546430	     16.95684112	     14.71596224	     -6.87565434	    -45.00000000	    -39.78026725	     45.00000000	    -45.00000000	   5502.85493681	  -5681.55031710	     28.19134623	     42.08064999	   1070.16531929	     43.84548904	     14.31269591	    -21.34446201
      3.19000000	     29.37916985	     27.25013727	     42.00026600	    -44.06737237	    845.09328391	    -48.56800520	     12.88482135	     34.24518074	     29.60349885	     45.00000000	    -45.00000000	    992.30234076	   2771.97488387	    156.12344850	      4.26805890	   1798.24656439	    523.92036169	     16.80678905	     14.81407003	     -6.90390938	    -45.00000000	    -39.52750375	     45.00000000	    -45.00000000	   5502.75424913	  -5681.64690390	     28.43602915	     42.63689866	   1070.27645225	     43.95118326	     14.35307509	    -21.31428823
      3.20000000	     29.27519908	     27.29878984	     42.21337593	    -41.71207899	    844.54321505	    -48.39395329	     12.91698303	     34.21545242	     29.84530539	     45.00000000	    -45.00000000	    992.38392743	   2771.87520493	    156.25129960	      4.19323552	   1798.20436235	    523.76556022	     16.65655200	     14.96432866	     -6.95163226	    -45.00000000	    -39.41432489	     45.00000000	    -45.00000000	   5502.56558596	  -5681.67629747	     28.53473441	     43.01107226	   1070.28434202	     44.11058380	     14.38844108	    -21.17510163
      3.21000000	     28.97029467	     27.46716033	     42.63883124	    -39.30967637	    843.94234065	    -48.22906304	     12.89420090	     34.24799948	     29.70303375	     45.00000000	    -45.00000000	    992.58374753	   2771.94424193	    156.26454774	      4.12101717	   1798.11211840	    523.62546918	     16.51877642	     15.06021082	     -7.02465801	    -45.00000000	    -39.55724446	     45.00000000	    -45.00000000	   5502.38222973	  -5681.66008828	     28.45795212	     43.33998653	   1070.23547037	     44.28527285	     14.37218466	    -20.95993352
      3.22000000	     28.91682454	     27.39352296	     42.75329900	    -36.87191791	    843.29659320	    -48.07151133	     12.97823076	     34.32862443	     29.89705371	     45.00000000	    -45.00000000	    992.64729321	   2771.83628382	    156.16612423	      4.14333391	   1798.14071204	    523.51089190	     16.36481012	     15.13962160	     -7.16456262	    -45.00000000	    -39.41109207	     45.00000000	    -45.00000000	   5502.21103138	  -5681.67734444	     28.57342097	     43.72752229	   1070.29087686	     44.43230598	     14.35099243	    -20.84997863
      3.23000000	     28.65398383	     27.58798278	     43.10281337	    -34.42441590	    842.61884357	    -47.90853787	     12.83064945	     34.25836328	     29.86929802	     45.00000000	    -45.00000000	    992.84364364	   2771.87069193	    156.32257452	      4.01550371	   1798.07036343	    523.42112588	     16.20789631	     15.28834307	     -7.12589136	    -45.00000000	    -39.52089733	     45.00000000	    -45.00000000	   5502.02078172	  -5681.74578459	     28.56242260	     43.96479917	   1070.25332583	     44.60520815	     14.33732480	    -20.66946768
      3.24000000	     28.80917517	     27.34523206	     43.09408286	    -31.96699141	    841.91111205	    -47.74200418	     13.21367424	     34.43013328	     30.40972655	     45.00000000	    -45.00000000	    992.67650599	   2771.56457587	    156.03457279	      4.05027294	   1798.18929419	    523.35023739	     16.07717723	     15.28003138	     -7.50997146	    -45.00000000	    -38.98345419	     45.00000000	    -45.00000000	   5501.89761498	  -5681.72954044	     28.76128347	     44.43444455	   1070.24762531	     44.76749628	     14.33816468	    -20.59878704
      3.25000000	     28.52337369	     27.55942559	     43.47473544	    -29.50957433	    841.17854582	    -47.57574360	     12.95700077	     34.36986225	     30.29385094	     45.00000000	    -45.00000000	    992.91214960	   2771.66607218	    156.19036880	      4.00373087	   1798.06229461	    523.34752986	     15.96571401	     15.38016604	     -7.36937657	    -45.00000000	    -39.10019804	     45.00000000	    -45.00000000	   5501.75087002	  -5681.80520275	     28.76485624	     44.65851053	   1070.23502529	     44.91838442	     14.32819559	    -20.41905398
      3.26000000	     28.33144640	     27.62283587	     43.68266667	    -27.04188142	    840.42177797	    -47.41339727	     12.93963436	     34.46392418	     30.31210799	     45.00000000	    -45.00000000	    993.14539170	   2771.62596686	    156.25928439	      4.05563206	   1798.02847647	    523.41743423	     15.81945180	     15.54173391	     -7.45595663	    -45.00000000	    -39.12539444	     45.00000000	    -45.00000000	   5501.55121363	  -5681.83656772	     28.75778319	     44.78894717	   1070.26122962	     45.03858520	     14.29271772	    -20.23250623
      3.27000000	     28.23160931	     27.69257853	     43.92025114	    -24.57074113	    839.64682200	    -47.25970219	     13.10907332	     34.44749322	     30.52253166	     45.00000000	    -45.00000000	    993.12229701	   2771.46575386	    156.17194673	      3.86643591	   1798.11231170	    523.49284282	     15.70335584	     15.56943383	     -7.61912102	    -45.00000000	    -38.94406418	     45.00000000	    -45.00000000	   5501.40724903	  -5681.89494209	     28.83088520	     44.96960028	   1070.21187449	     45.14630140	     14.28275301	    -20.06757412
